<svg width="431" height="382" viewBox="0 0 431 382" fill="none" xmlns="http://www.w3.org/2000/svg">
<path d="M1.24512 338V336.572H3.14941C5.2002 336.572 6.73828 335.949 7.76367 334.704C8.34961 333.923 8.64258 331.97 8.64258 328.845V295.41C8.64258 292.163 8.28857 290.161 7.58057 289.404C6.43311 288.256 4.95605 287.683 3.14941 287.683H1.24512V286.364H39.6973L40.21 297.607H38.8916C37.915 294.335 36.7188 292.138 35.3027 291.015C33.667 289.77 31.0303 289.147 27.3926 289.147H15.9668V309.399H25.415C27.6123 309.399 29.1992 308.911 30.1758 307.934C31.1035 306.884 31.7627 305.041 32.1533 302.404H33.5815V319.946H32.1533C32.1533 317.358 31.6528 315.49 30.6519 314.343C29.6265 313.171 27.8809 312.585 25.415 312.585H15.9668V328.845C15.9668 332.116 16.2476 334.033 16.8091 334.594C17.8833 335.913 19.458 336.572 21.5332 336.572H23.4009V338H1.24512ZM45.1172 338V336.572H46.875C48.6328 336.572 50 336.157 50.9766 335.327C51.9531 334.497 52.4414 332.336 52.4414 328.845V295.263C52.4414 291.967 52.1118 289.978 51.4526 289.294C50.4517 288.22 48.9258 287.683 46.875 287.683H45.1172V286.364H84.8511L85.4736 297.607H83.9722C83.1177 294.213 82.4707 292.224 82.0312 291.638C80.7129 289.978 78.0273 289.147 73.9746 289.147H59.729V309.582H71.0815C74.3286 309.582 76.4771 308.996 77.5269 307.824C78.2837 306.97 78.8574 305.065 79.248 302.111H80.6763V320.056H79.248C78.8574 317.028 78.2837 315.087 77.5269 314.233C76.4526 313.012 74.3042 312.402 71.0815 312.402H59.729V329.467C59.729 331.689 59.8511 333.044 60.0952 333.532C60.6079 334.655 61.9263 335.217 64.0503 335.217H72.8027C76.8555 335.217 79.8096 334.57 81.665 333.276C83.2764 332.128 85.3149 329.37 87.7808 325H89.3555L84.8511 338H45.1172ZM92.4683 338V336.572H94.4092C96.6064 336.572 98.1567 335.876 99.0601 334.484C99.5483 333.703 99.7925 331.823 99.7925 328.845V295.41C99.7925 292.163 99.4873 290.148 98.877 289.367C97.7539 288.244 96.2646 287.683 94.4092 287.683H92.4683V286.364H111.218C116.98 286.364 121.069 286.767 123.486 287.573C126.27 288.476 128.479 289.941 130.115 291.967C131.897 294.14 132.788 296.667 132.788 299.548C132.788 306.481 128.552 310.925 120.081 312.878L130.701 327.746C132.922 330.871 134.961 333.068 136.816 334.338C138.599 335.534 140.955 336.279 143.884 336.572V338H130.078L112.573 313.793C109.79 313.964 107.959 313.964 107.08 313.793V328.845C107.08 332.019 107.471 334.021 108.252 334.851C109.106 335.998 110.547 336.572 112.573 336.572H114.624V338H92.4683ZM107.08 311.45H109.277C114.16 311.45 117.92 310.388 120.557 308.264C122.998 306.262 124.219 303.552 124.219 300.134C124.219 296.862 123.206 294.25 121.179 292.297C119.153 290.295 116.467 289.257 113.123 289.184C111.804 289.184 109.79 289.416 107.08 289.88V311.45ZM189.88 338.842L155.713 297.241V328.991C155.713 332.165 156.067 334.167 156.775 334.997C157.654 336.047 159.155 336.572 161.279 336.572H163.074V338H145.056V336.572H146.887C149.158 336.572 150.708 335.9 151.538 334.558C152.124 333.825 152.417 331.97 152.417 328.991V293.103C152.026 292.59 151.624 292.077 151.208 291.564C150.818 291.027 150.415 290.502 150 289.99C148.364 288.452 146.277 287.683 143.738 287.683V286.364H156.299L187.866 325.073V295.263C187.866 292.065 187.5 290.1 186.768 289.367C185.767 288.244 184.265 287.683 182.263 287.683H180.542V286.364H198.523V287.683H196.729C194.482 287.683 192.932 288.342 192.078 289.66C191.516 290.466 191.235 292.333 191.235 295.263V338.842H189.88ZM200.244 338V336.572C202.344 336.425 204.028 335.632 205.298 334.191C205.835 333.581 206.384 332.739 206.946 331.665C207.532 330.59 208.154 329.284 208.813 327.746L226.978 285.156H228.369L246.277 328.112C247.009 329.87 247.705 331.311 248.364 332.434C249.048 333.557 249.67 334.387 250.232 334.924C251.355 335.876 252.979 336.425 255.103 336.572V338H234.814V336.572C238.257 336.523 239.978 335.424 239.978 333.276C239.978 332.202 239.478 330.48 238.477 328.112L235.364 320.678H215.369L211.816 328.955C210.962 330.957 210.535 332.36 210.535 333.166C210.535 335.07 212.549 336.206 216.577 336.572V338H200.244ZM216.577 317.895H234.338L225.586 296.948L216.577 317.895ZM302.38 338.842L268.213 297.241V328.991C268.213 332.165 268.567 334.167 269.275 334.997C270.154 336.047 271.655 336.572 273.779 336.572H275.574V338H257.556V336.572H259.387C261.658 336.572 263.208 335.9 264.038 334.558C264.624 333.825 264.917 331.97 264.917 328.991V293.103C264.526 292.59 264.124 292.077 263.708 291.564C263.318 291.027 262.915 290.502 262.5 289.99C260.864 288.452 258.777 287.683 256.238 287.683V286.364H268.799L300.366 325.073V295.263C300.366 292.065 300 290.1 299.268 289.367C298.267 288.244 296.765 287.683 294.763 287.683H293.042V286.364H311.023V287.683H309.229C306.982 287.683 305.432 288.342 304.578 289.66C304.016 290.466 303.735 292.333 303.735 295.263V338.842H302.38ZM313.513 338V336.572H315.454C317.627 336.572 319.165 335.876 320.068 334.484C320.581 333.532 320.837 331.652 320.837 328.845V295.41C320.837 292.163 320.532 290.148 319.922 289.367C318.799 288.244 317.31 287.683 315.454 287.683H313.513V286.364H334.534C345.374 286.364 353.052 288.391 357.568 292.443C362.866 297.058 365.515 303.527 365.515 311.853C365.515 319.567 363.196 325.732 358.557 330.346C353.406 335.449 346.094 338 336.621 338H313.513ZM336.365 335.4C342.297 335.449 347.192 333.361 351.05 329.138C354.932 324.963 356.873 319.323 356.873 312.219C356.873 305.139 354.932 299.536 351.05 295.41C347.192 291.259 342.188 289.184 336.035 289.184C334.814 289.184 333.545 289.282 332.227 289.477C330.933 289.648 329.602 289.941 328.235 290.356V334.228C331.848 335.009 334.558 335.4 336.365 335.4ZM369.141 338V336.572C371.24 336.425 372.925 335.632 374.194 334.191C374.731 333.581 375.281 332.739 375.842 331.665C376.428 330.59 377.051 329.284 377.71 327.746L395.874 285.156H397.266L415.173 328.112C415.906 329.87 416.602 331.311 417.261 332.434C417.944 333.557 418.567 334.387 419.128 334.924C420.251 335.876 421.875 336.425 423.999 336.572V338H403.711V336.572C407.153 336.523 408.875 335.424 408.875 333.276C408.875 332.202 408.374 330.48 407.373 328.112L404.26 320.678H384.265L380.713 328.955C379.858 330.957 379.431 332.36 379.431 333.166C379.431 335.07 381.445 336.206 385.474 336.572V338H369.141ZM385.474 317.895H403.235L394.482 296.948L385.474 317.895Z" fill="#870000"/>
<path d="M97.5962 374V373.372H98.3857C99.3203 373.372 100.002 373.076 100.432 372.485C100.647 372.131 100.754 371.314 100.754 370.036V355.196C100.754 353.767 100.518 352.87 100.045 352.505C99.4868 352.075 98.6704 351.86 97.5962 351.86V351.28H104.009L112.259 369.053L120.38 351.28H126.842V351.86H126.036C125.091 351.86 124.398 352.15 123.958 352.73C123.71 353.128 123.587 353.95 123.587 355.196V370.036C123.587 371.422 123.759 372.303 124.103 372.679C124.489 373.141 125.134 373.372 126.036 373.372H126.842V374H117.142V373.372H117.947C118.914 373.372 119.607 373.076 120.026 372.485C120.262 372.142 120.38 371.325 120.38 370.036V354.874L111.615 374H111.035L102.253 354.874V370.036C102.253 371.411 102.414 372.292 102.736 372.679C103.155 373.141 103.811 373.372 104.702 373.372H105.476V374H97.5962ZM137.628 374.5C135.555 374.5 133.82 373.705 132.423 372.115C131.038 370.514 130.345 368.629 130.345 366.459C130.345 364.289 131.005 362.404 132.327 360.803C133.755 359.074 135.576 358.209 137.789 358.209C139.927 358.209 141.705 358.956 143.123 360.449C144.498 361.931 145.185 363.8 145.185 366.056C145.185 368.248 144.557 370.149 143.3 371.76C141.86 373.586 139.97 374.5 137.628 374.5ZM138.321 373.259C140.813 373.259 142.059 371.277 142.059 367.313C142.059 364.971 141.619 363.054 140.738 361.561C139.868 360.035 138.708 359.272 137.257 359.272C136.215 359.272 135.367 359.681 134.712 360.497C133.884 361.518 133.471 363.048 133.471 365.089C133.471 367.367 133.906 369.279 134.776 370.826C135.689 372.448 136.871 373.259 138.321 373.259ZM155.472 374.5C153.753 374.5 152.271 373.78 151.025 372.34C149.779 370.879 149.155 369.091 149.155 366.975C149.155 364.762 149.8 362.796 151.089 361.077C152.539 359.154 154.382 358.188 156.616 358.177C157.959 358.177 159.076 358.606 159.967 359.466V356.63C159.967 354.986 159.93 353.923 159.855 353.439C159.812 353.096 159.672 352.806 159.436 352.569C159.135 352.29 158.528 352.301 157.615 352.602L157.389 351.989L161.998 350.152H162.755V367.909C162.755 368.758 162.766 369.451 162.787 369.988C162.809 370.514 162.825 370.89 162.836 371.116C162.879 371.545 163.029 371.852 163.287 372.034C163.641 372.335 164.259 372.324 165.14 372.002L165.333 372.566L160.693 374.5H159.967V372.276C158.517 373.758 157.019 374.5 155.472 374.5ZM156.987 372.614C158.007 372.614 159.001 372.109 159.967 371.1V363.172C159.967 362.205 159.651 361.335 159.017 360.562C158.34 359.713 157.475 359.262 156.423 359.208C155.252 359.165 154.274 359.724 153.49 360.884C152.663 362.098 152.249 363.671 152.249 365.605C152.249 367.904 152.77 369.687 153.812 370.955C154.693 372.05 155.751 372.604 156.987 372.614ZM171.737 374.306C170.641 374.306 169.76 373.941 169.094 373.21C168.417 372.501 168.079 371.551 168.079 370.358C168.079 369.123 168.595 368.07 169.626 367.2C170.883 366.126 173.214 364.998 176.619 363.816V363.188C176.619 361.77 176.388 360.75 175.926 360.126C175.475 359.514 174.755 359.208 173.767 359.208C173.058 359.208 172.51 359.385 172.123 359.74C171.704 360.094 171.479 360.54 171.447 361.077L171.479 362.06C171.511 363.124 171.044 363.655 170.077 363.655C169.142 363.655 168.675 363.118 168.675 362.044C168.675 360.895 169.244 359.955 170.383 359.224C171.49 358.547 172.795 358.209 174.299 358.209C176.372 358.209 177.784 358.682 178.536 359.627C179.138 360.357 179.439 361.625 179.439 363.43V368.683C179.439 369.349 179.444 369.902 179.455 370.342C179.466 370.783 179.487 371.121 179.519 371.357C179.616 371.905 179.863 372.179 180.261 372.179C180.583 372.179 181.19 371.728 182.081 370.826V371.792C180.825 373.468 179.605 374.306 178.424 374.306C177.221 374.306 176.619 373.468 176.619 371.792C175.19 372.91 174.245 373.592 173.783 373.839C173.181 374.15 172.499 374.306 171.737 374.306ZM173.267 372.389C174.095 372.41 175.212 371.852 176.619 370.713V364.799C174.234 365.755 172.639 366.62 171.833 367.394C171.221 368.006 170.915 368.731 170.915 369.569C170.915 370.385 171.146 371.046 171.608 371.551C172.037 372.077 172.591 372.356 173.267 372.389ZM195.162 374V373.372H195.855C196.467 373.372 196.994 373.184 197.434 372.808C197.864 372.442 198.079 371.486 198.079 369.939V359.853H195.049V358.628H198.079V357.613C198.079 354.659 199.019 352.548 200.898 351.28C202.005 350.528 203.208 350.152 204.508 350.152C205.496 350.152 206.452 350.442 207.376 351.022C208.289 351.613 208.746 352.285 208.746 353.037C208.746 353.316 208.606 353.622 208.327 353.955C208.037 354.267 207.72 354.422 207.376 354.422C206.871 354.422 206.248 353.923 205.507 352.924C204.798 351.903 204.024 351.393 203.187 351.393C202.177 351.393 201.532 351.887 201.253 352.875C201.146 353.241 201.054 353.815 200.979 354.6C200.915 355.384 200.882 356.367 200.882 357.548V358.628H204.846V359.853H200.882V369.939C200.882 371.422 201.043 372.324 201.366 372.646C201.742 373.13 202.295 373.372 203.025 373.372H204.411V374H195.162ZM214.843 374.5C212.984 374.5 211.405 373.758 210.106 372.276C208.795 370.772 208.14 368.849 208.14 366.507C208.14 363.951 208.8 361.915 210.122 360.4C211.475 358.918 213.199 358.177 215.294 358.177C217.002 358.177 218.415 358.735 219.532 359.853C220.617 360.991 221.159 362.511 221.159 364.413H210.541C210.541 366.636 211.099 368.425 212.216 369.778C213.28 371.046 214.585 371.69 216.132 371.712C218.194 371.744 219.693 370.525 220.628 368.054L221.159 368.376C220.934 369.988 220.268 371.384 219.161 372.566C217.958 373.855 216.519 374.5 214.843 374.5ZM210.541 363.462H217.663C217.663 361.99 217.249 360.889 216.422 360.159C215.799 359.632 215.106 359.369 214.343 359.369C213.387 359.369 212.549 359.729 211.83 360.449C211.078 361.201 210.648 362.205 210.541 363.462ZM224.324 374V373.372C225.291 373.372 225.914 373.205 226.193 372.872C226.483 372.539 226.628 371.755 226.628 370.52V364.638C226.628 362.941 226.601 361.894 226.548 361.496C226.408 360.755 226.053 360.384 225.484 360.384C225.205 360.384 224.818 360.476 224.324 360.658L224.05 360.062L228.707 358.209H229.448V361.448C230.619 360.137 231.618 359.262 232.445 358.821C233.133 358.413 233.906 358.209 234.765 358.209C236.882 358.209 238.181 359.289 238.665 361.448C239.75 360.191 240.717 359.321 241.565 358.837C242.306 358.418 243.128 358.209 244.03 358.209C246.748 358.209 248.107 360.1 248.107 363.881V370.52C248.107 371.701 248.263 372.469 248.574 372.824C248.864 373.189 249.477 373.372 250.411 373.372V374H242.806V373.372C243.955 373.372 244.67 373.167 244.949 372.759C245.185 372.416 245.303 371.669 245.303 370.52V363.881C245.303 361.421 244.449 360.191 242.741 360.191C241.506 360.191 240.185 360.884 238.778 362.27V370.52C238.778 371.669 238.901 372.421 239.148 372.775C239.449 373.173 240.158 373.372 241.275 373.372V374H233.476V373.372C234.669 373.372 235.415 373.141 235.716 372.679C235.899 372.378 235.99 371.658 235.99 370.52V363.881C235.99 361.399 235.114 360.159 233.363 360.159C232.064 360.159 230.758 360.862 229.448 362.27V370.52C229.448 371.798 229.604 372.587 229.915 372.888C230.205 373.21 230.871 373.372 231.913 373.372V374H224.324ZM260.166 374.5C258.308 374.5 256.729 373.758 255.429 372.276C254.118 370.772 253.463 368.849 253.463 366.507C253.463 363.951 254.124 361.915 255.445 360.4C256.799 358.918 258.523 358.177 260.617 358.177C262.325 358.177 263.738 358.735 264.855 359.853C265.94 360.991 266.483 362.511 266.483 364.413H255.864C255.864 366.636 256.423 368.425 257.54 369.778C258.603 371.046 259.908 371.69 261.455 371.712C263.518 371.744 265.016 370.525 265.951 368.054L266.483 368.376C266.257 369.988 265.591 371.384 264.485 372.566C263.282 373.855 261.842 374.5 260.166 374.5ZM255.864 363.462H262.986C262.986 361.99 262.573 360.889 261.745 360.159C261.122 359.632 260.429 359.369 259.667 359.369C258.711 359.369 257.873 359.729 257.153 360.449C256.401 361.201 255.971 362.205 255.864 363.462ZM269.583 374V373.372C270.55 373.372 271.173 373.2 271.452 372.856C271.742 372.523 271.887 371.744 271.887 370.52V364.799C271.887 362.307 271.721 360.911 271.388 360.61C271.001 360.309 270.399 360.325 269.583 360.658L269.309 360.062L274.014 358.209H274.707V361.416C276.49 359.278 278.204 358.209 279.847 358.209C282.533 358.209 283.875 360.126 283.875 363.961V370.52C283.875 371.615 283.988 372.335 284.214 372.679C284.515 373.141 285.197 373.372 286.26 373.372V374H278.574V373.372C279.691 373.372 280.39 373.205 280.669 372.872C280.948 372.507 281.088 371.723 281.088 370.52V364.251C281.088 362.866 280.9 361.845 280.524 361.19C280.18 360.578 279.562 360.271 278.671 360.271C277.328 360.271 276.007 360.991 274.707 362.431V370.52C274.707 371.669 274.814 372.399 275.029 372.711C275.351 373.151 276.077 373.372 277.204 373.372V374H269.583ZM289.264 374V373.372C290.23 373.372 290.859 373.21 291.149 372.888C291.46 372.555 291.616 371.884 291.616 370.874V362.64C291.616 361.136 291.229 360.384 290.456 360.384C290.188 360.384 289.79 360.476 289.264 360.658L289.038 360.062L293.695 358.209H294.42V370.874C294.42 371.905 294.57 372.577 294.871 372.888C295.161 373.21 295.79 373.372 296.756 373.372V374H289.264ZM293.018 355.131C292.556 355.131 292.148 354.97 291.793 354.648C291.471 354.326 291.31 353.917 291.31 353.423C291.31 352.908 291.482 352.51 291.826 352.231C292.169 351.909 292.567 351.748 293.018 351.748C293.501 351.748 293.904 351.909 294.227 352.231C294.549 352.564 294.71 352.961 294.71 353.423C294.71 353.928 294.554 354.336 294.243 354.648C293.92 354.97 293.512 355.131 293.018 355.131ZM299.599 374V373.372C300.566 373.372 301.189 373.2 301.468 372.856C301.758 372.523 301.903 371.744 301.903 370.52V364.799C301.903 362.307 301.736 360.911 301.403 360.61C301.017 360.309 300.415 360.325 299.599 360.658L299.325 360.062L304.03 358.209H304.723V361.416C306.506 359.278 308.219 358.209 309.863 358.209C312.548 358.209 313.891 360.126 313.891 363.961V370.52C313.891 371.615 314.004 372.335 314.23 372.679C314.53 373.141 315.212 373.372 316.276 373.372V374H308.59V373.372C309.707 373.372 310.405 373.205 310.685 372.872C310.964 372.507 311.104 371.723 311.104 370.52V364.251C311.104 362.866 310.916 361.845 310.54 361.19C310.196 360.578 309.578 360.271 308.687 360.271C307.344 360.271 306.023 360.991 304.723 362.431V370.52C304.723 371.669 304.83 372.399 305.045 372.711C305.367 373.151 306.092 373.372 307.22 373.372V374H299.599ZM322.873 374.306C321.777 374.306 320.896 373.941 320.23 373.21C319.553 372.501 319.215 371.551 319.215 370.358C319.215 369.123 319.731 368.07 320.762 367.2C322.019 366.126 324.35 364.998 327.755 363.816V363.188C327.755 361.77 327.524 360.75 327.062 360.126C326.611 359.514 325.891 359.208 324.903 359.208C324.194 359.208 323.646 359.385 323.259 359.74C322.841 360.094 322.615 360.54 322.583 361.077L322.615 362.06C322.647 363.124 322.18 363.655 321.213 363.655C320.279 363.655 319.811 363.118 319.811 362.044C319.811 360.895 320.381 359.955 321.519 359.224C322.626 358.547 323.931 358.209 325.435 358.209C327.508 358.209 328.921 358.682 329.673 359.627C330.274 360.357 330.575 361.625 330.575 363.43V368.683C330.575 369.349 330.58 369.902 330.591 370.342C330.602 370.783 330.623 371.121 330.655 371.357C330.752 371.905 330.999 372.179 331.397 372.179C331.719 372.179 332.326 371.728 333.217 370.826V371.792C331.961 373.468 330.741 374.306 329.56 374.306C328.357 374.306 327.755 373.468 327.755 371.792C326.326 372.91 325.381 373.592 324.919 373.839C324.318 374.15 323.635 374.306 322.873 374.306ZM324.404 372.389C325.231 372.41 326.348 371.852 327.755 370.713V364.799C325.37 365.755 323.775 366.62 322.969 367.394C322.357 368.006 322.051 368.731 322.051 369.569C322.051 370.385 322.282 371.046 322.744 371.551C323.174 372.077 323.727 372.356 324.404 372.389Z" fill="#870000"/>
<path d="M215.505 0C215.505 0 239.437 43.4937 239.261 73.748C239.194 85.2196 236.005 97.3497 231.984 108.125C236.872 95.9222 244.871 83.3104 257.9 73.748C279.39 57.9763 295.727 64.9862 316.011 29.9375C316.011 69.1849 295.909 82.1456 288.417 89.9951C282.098 96.6146 245.763 112.97 232.666 134.354C232.976 141.108 237.58 158.559 253.515 174.331C273.176 193.792 289.455 222.68 277.04 237.468C276.878 237.661 276.711 237.852 276.539 238.04C271.787 242.42 256.621 231.467 245.84 216.499C242.312 211.6 238.685 203.515 235.435 194.316C237.691 202.888 239.215 211.259 239.261 218.325C239.481 252.278 215.505 268.343 215.505 268.343C215.436 268.296 191.53 252.229 191.75 218.325C191.796 211.259 193.319 202.888 195.575 194.316C192.325 203.515 188.699 211.6 185.171 216.499C174.39 231.467 159.223 242.42 154.472 238.04C154.3 237.852 154.133 237.661 153.971 237.468C141.556 222.68 157.834 193.792 177.496 174.331C193.431 158.559 198.035 141.108 198.345 134.354C185.248 112.97 148.912 96.6146 142.594 89.9951C135.102 82.1456 115 69.1849 115 29.9375C135.284 64.9862 151.621 57.9763 173.11 73.748C186.139 83.3104 194.139 95.9222 199.026 108.125C195.005 97.3497 191.817 85.2196 191.75 73.748C191.574 43.5316 215.445 0.108855 215.505 0ZM215.562 127.234C215.562 127.234 215.393 134.829 211.455 138.644C207.608 142.369 200.118 142.722 200.072 142.725C200.124 142.731 207.575 143.638 211.455 147.314C215.484 151.131 215.562 158.214 215.562 158.214C215.562 158.214 215.807 151.082 219.898 147.314C223.763 143.757 230.99 142.733 231.053 142.725C230.996 142.721 223.73 142.251 219.898 138.644C215.898 134.877 215.562 127.234 215.562 127.234Z" fill="#870000"/>
</svg>
