<svg width="538" height="154" viewBox="0 0 538 154" fill="none" xmlns="http://www.w3.org/2000/svg">
<path d="M115.238 17.181C103.61 37.2952 94.2438 33.2724 81.9238 42.3238C74.4543 47.8116 69.8684 55.0493 67.0662 62.0525C66.8613 62.5646 66.6659 63.0755 66.4796 63.5844C63.9616 70.4632 62.8988 76.9709 62.6476 81.1905C62.3978 85.3882 63.7927 93.4236 65.9909 101.613C68.4011 110.591 71.7769 119.755 75.0095 124.248C81.1905 132.838 89.8857 139.124 92.6095 136.61C92.708 136.502 92.8037 136.392 92.8966 136.281C95.0374 133.268 91.3067 123.07 84.9619 117.229C83.7555 116.118 63.0667 99.9429 64.8476 84.2286C65.1267 81.7658 66.062 79.3855 67.4573 77.1048C74.9657 64.8326 95.797 55.4464 99.419 51.6476C103.714 47.1429 115.238 39.7048 115.238 17.181Z" fill="url(#paint0_linear_13_690)"/>
<path d="M64.8476 84.2286C63.0667 99.9429 83.7555 116.118 84.9619 117.229C91.3067 123.07 95.0374 133.268 92.8966 136.281C100.014 127.795 90.6815 111.216 79.4095 100.048C70.2743 90.9962 67.635 80.9809 67.4573 77.1048C66.062 79.3855 65.1267 81.7658 64.8476 84.2286Z" fill="#5F0106"/>
<path d="M0 17.181C11.6286 37.2952 20.9943 33.2724 33.3143 42.3238C40.7838 47.8116 45.3697 55.0493 48.1718 62.0524C48.3768 62.5646 48.5722 63.0755 48.7585 63.5845C51.2765 70.4632 52.3393 76.9709 52.5905 81.1905C52.8403 85.3881 51.4454 93.4236 49.2472 101.613C46.837 110.591 43.4612 119.755 40.2286 124.248C34.0476 132.838 25.3524 139.124 22.6286 136.61C22.5301 136.502 22.4344 136.392 22.3415 136.281C20.2007 133.268 23.9314 123.07 30.2762 117.229C31.4826 116.118 52.1714 99.9429 50.3905 84.2286C50.1114 81.7658 49.1761 79.3855 47.7808 77.1048C40.2724 64.8326 19.4411 55.4464 15.819 51.6476C11.5238 47.1429 0 39.7048 0 17.181Z" fill="url(#paint1_linear_13_690)"/>
<path d="M50.3905 84.2286C52.1714 99.9429 31.4826 116.118 30.2762 117.229C23.9314 123.07 20.2007 133.268 22.3415 136.281C15.2242 127.795 24.5566 111.216 35.8286 100.048C44.9638 90.9962 47.6031 80.9809 47.7808 77.1048C49.1761 79.3855 50.1114 81.7658 50.3905 84.2286Z" fill="#5F0106"/>
<path d="M71.2381 125.295C71.194 118.508 68.7768 109.626 65.9909 101.613C62.1545 90.5779 57.619 81.1905 57.619 81.1905C57.619 81.1905 53.0836 90.5779 49.2472 101.613C46.4613 109.626 44.0441 118.508 44 125.295C43.8735 144.781 57.619 154 57.619 154C57.619 154 71.3646 144.781 71.2381 125.295Z" fill="url(#paint2_linear_13_690)"/>
<path d="M66.4796 63.5844C66.6659 63.0755 66.8613 62.5646 67.0662 62.0525C69.3715 55.8685 71.1998 48.9074 71.2381 42.3238C71.339 24.961 57.619 0 57.619 0C57.619 0 43.8991 24.961 44 42.3238C44.0383 48.9073 45.8666 55.8685 48.1718 62.0524C48.3768 62.5646 48.5722 63.0755 48.7585 63.5845C52.6867 73.5817 57.619 81.1905 57.619 81.1905C57.619 81.1905 62.5514 73.5816 66.4796 63.5844Z" fill="url(#paint3_linear_13_690)"/>
<path d="M52.5905 81.1905C52.8403 85.3881 51.4454 93.4236 49.2472 101.613C53.0836 90.5779 57.619 81.1905 57.619 81.1905C57.619 81.1905 52.6867 73.5817 48.7585 63.5845C51.2765 70.4632 52.3393 76.9709 52.5905 81.1905Z" fill="#5F0106"/>
<path d="M65.9909 101.613C63.7927 93.4236 62.3978 85.3882 62.6476 81.1905C62.8988 76.9709 63.9616 70.4632 66.4796 63.5844C62.5514 73.5816 57.619 81.1905 57.619 81.1905C57.619 81.1905 62.1545 90.5779 65.9909 101.613Z" fill="#5F0106"/>
<path d="M48.8191 81.9084C48.8191 81.9084 53.1371 81.7113 55.3513 79.5667C57.6113 77.3778 57.7084 73.0191 57.7084 73.0191C57.7084 73.0191 57.9006 77.4052 60.1965 79.5667C62.4039 81.6449 66.5978 81.9084 66.5978 81.9084C66.5978 81.9084 62.4236 82.4921 60.1965 84.5429C57.8485 86.7052 57.7084 90.7978 57.7084 90.7978C57.7084 90.7978 57.6634 86.7335 55.3513 84.5429C53.1166 82.4258 48.8191 81.9084 48.8191 81.9084Z" fill="white"/>
<path d="M108.245 108V106.572H110.149C112.2 106.572 113.738 105.949 114.764 104.704C115.35 103.923 115.643 101.97 115.643 98.8447V65.4097C115.643 62.1626 115.289 60.1606 114.581 59.4038C113.433 58.2563 111.956 57.6826 110.149 57.6826H108.245V56.3643H146.697L147.21 67.6069H145.892C144.915 64.3354 143.719 62.1382 142.303 61.0151C140.667 59.77 138.03 59.1475 134.393 59.1475H122.967V79.3989H132.415C134.612 79.3989 136.199 78.9106 137.176 77.9341C138.104 76.8843 138.763 75.041 139.153 72.4043H140.582V89.9458H139.153C139.153 87.3579 138.653 85.4902 137.652 84.3428C136.626 83.1709 134.881 82.585 132.415 82.585H122.967V98.8447C122.967 102.116 123.248 104.033 123.809 104.594C124.883 105.913 126.458 106.572 128.533 106.572H130.401V108H108.245ZM152.117 108V106.572H153.875C155.633 106.572 157 106.157 157.977 105.327C158.953 104.497 159.441 102.336 159.441 98.8447V65.2632C159.441 61.9673 159.112 59.9775 158.453 59.2939C157.452 58.2197 155.926 57.6826 153.875 57.6826H152.117V56.3643H191.851L192.474 67.6069H190.972C190.118 64.2134 189.471 62.2236 189.031 61.6377C187.713 59.9775 185.027 59.1475 180.975 59.1475H166.729V79.582H178.082C181.329 79.582 183.477 78.9961 184.527 77.8242C185.284 76.9697 185.857 75.0654 186.248 72.1113H187.676V90.0557H186.248C185.857 87.0283 185.284 85.0874 184.527 84.2329C183.453 83.0122 181.304 82.4019 178.082 82.4019H166.729V99.4673C166.729 101.689 166.851 103.044 167.095 103.532C167.608 104.655 168.926 105.217 171.05 105.217H179.803C183.855 105.217 186.81 104.57 188.665 103.276C190.276 102.128 192.315 99.3696 194.781 94.9995H196.355L191.851 108H152.117ZM199.468 108V106.572H201.409C203.606 106.572 205.157 105.876 206.06 104.484C206.548 103.703 206.792 101.823 206.792 98.8447V65.4097C206.792 62.1626 206.487 60.1484 205.877 59.3672C204.754 58.2441 203.265 57.6826 201.409 57.6826H199.468V56.3643H218.218C223.98 56.3643 228.069 56.7671 230.486 57.5728C233.27 58.4761 235.479 59.9409 237.115 61.9673C238.897 64.1401 239.788 66.667 239.788 69.5479C239.788 76.4814 235.552 80.9248 227.081 82.8779L237.701 97.7461C239.922 100.871 241.961 103.068 243.816 104.338C245.599 105.534 247.955 106.279 250.884 106.572V108H237.078L219.573 83.7935C216.79 83.9644 214.959 83.9644 214.08 83.7935V98.8447C214.08 102.019 214.471 104.021 215.252 104.851C216.106 105.998 217.547 106.572 219.573 106.572H221.624V108H199.468ZM214.08 81.4497H216.277C221.16 81.4497 224.92 80.3877 227.557 78.2637C229.998 76.2617 231.219 73.5518 231.219 70.1338C231.219 66.8623 230.206 64.25 228.179 62.2969C226.153 60.2949 223.467 59.2573 220.123 59.1841C218.804 59.1841 216.79 59.416 214.08 59.8799V81.4497ZM296.88 108.842L262.713 67.2407V98.9912C262.713 102.165 263.067 104.167 263.775 104.997C264.654 106.047 266.155 106.572 268.279 106.572H270.074V108H252.056V106.572H253.887C256.158 106.572 257.708 105.9 258.538 104.558C259.124 103.825 259.417 101.97 259.417 98.9912V63.1025C259.026 62.5898 258.624 62.0771 258.208 61.5645C257.818 61.0273 257.415 60.5024 257 59.9897C255.364 58.4517 253.277 57.6826 250.738 57.6826V56.3643H263.299L294.866 95.0728V65.2632C294.866 62.0649 294.5 60.0996 293.768 59.3672C292.767 58.2441 291.265 57.6826 289.263 57.6826H287.542V56.3643H305.523V57.6826H303.729C301.482 57.6826 299.932 58.3418 299.078 59.6602C298.516 60.4658 298.235 62.3335 298.235 65.2632V108.842H296.88ZM307.244 108V106.572C309.344 106.425 311.028 105.632 312.298 104.191C312.835 103.581 313.384 102.739 313.946 101.665C314.532 100.59 315.154 99.2842 315.813 97.7461L333.978 55.1558H335.369L353.277 98.1123C354.009 99.8701 354.705 101.311 355.364 102.434C356.048 103.557 356.67 104.387 357.232 104.924C358.355 105.876 359.979 106.425 362.103 106.572V108H341.814V106.572C345.257 106.523 346.978 105.424 346.978 103.276C346.978 102.202 346.478 100.48 345.477 98.1123L342.364 90.6782H322.369L318.816 98.9546C317.962 100.957 317.535 102.36 317.535 103.166C317.535 105.07 319.549 106.206 323.577 106.572V108H307.244ZM323.577 87.895H341.338L332.586 66.9478L323.577 87.895ZM409.38 108.842L375.213 67.2407V98.9912C375.213 102.165 375.567 104.167 376.275 104.997C377.154 106.047 378.655 106.572 380.779 106.572H382.574V108H364.556V106.572H366.387C368.658 106.572 370.208 105.9 371.038 104.558C371.624 103.825 371.917 101.97 371.917 98.9912V63.1025C371.526 62.5898 371.124 62.0771 370.708 61.5645C370.318 61.0273 369.915 60.5024 369.5 59.9897C367.864 58.4517 365.777 57.6826 363.238 57.6826V56.3643H375.799L407.366 95.0728V65.2632C407.366 62.0649 407 60.0996 406.268 59.3672C405.267 58.2441 403.765 57.6826 401.763 57.6826H400.042V56.3643H418.023V57.6826H416.229C413.982 57.6826 412.432 58.3418 411.578 59.6602C411.016 60.4658 410.735 62.3335 410.735 65.2632V108.842H409.38ZM420.513 108V106.572H422.454C424.627 106.572 426.165 105.876 427.068 104.484C427.581 103.532 427.837 101.652 427.837 98.8447V65.4097C427.837 62.1626 427.532 60.1484 426.922 59.3672C425.799 58.2441 424.31 57.6826 422.454 57.6826H420.513V56.3643H441.534C452.374 56.3643 460.052 58.3906 464.568 62.4434C469.866 67.0576 472.515 73.5273 472.515 81.8525C472.515 89.5674 470.196 95.7319 465.557 100.346C460.406 105.449 453.094 108 443.621 108H420.513ZM443.365 105.4C449.297 105.449 454.192 103.361 458.05 99.1377C461.932 94.9629 463.873 89.3232 463.873 82.2188C463.873 75.1387 461.932 69.5356 458.05 65.4097C454.192 61.2593 449.188 59.1841 443.035 59.1841C441.814 59.1841 440.545 59.2817 439.227 59.4771C437.933 59.6479 436.602 59.9409 435.235 60.356V104.228C438.848 105.009 441.558 105.4 443.365 105.4ZM476.141 108V106.572C478.24 106.425 479.925 105.632 481.194 104.191C481.731 103.581 482.281 102.739 482.842 101.665C483.428 100.59 484.051 99.2842 484.71 97.7461L502.874 55.1558H504.266L522.173 98.1123C522.906 99.8701 523.602 101.311 524.261 102.434C524.944 103.557 525.567 104.387 526.128 104.924C527.251 105.876 528.875 106.425 530.999 106.572V108H510.711V106.572C514.153 106.523 515.875 105.424 515.875 103.276C515.875 102.202 515.374 100.48 514.373 98.1123L511.26 90.6782H491.265L487.713 98.9546C486.858 100.957 486.431 102.36 486.431 103.166C486.431 105.07 488.445 106.206 492.474 106.572V108H476.141ZM492.474 87.895H510.235L501.482 66.9478L492.474 87.895Z" fill="#420104"/>
<path d="M182.596 140V139.372H183.386C184.32 139.372 185.002 139.076 185.432 138.485C185.647 138.131 185.754 137.314 185.754 136.036V121.196C185.754 119.767 185.518 118.87 185.045 118.505C184.487 118.075 183.67 117.86 182.596 117.86V117.28H189.009L197.259 135.053L205.38 117.28H211.842V117.86H211.036C210.091 117.86 209.398 118.15 208.958 118.73C208.71 119.128 208.587 119.95 208.587 121.196V136.036C208.587 137.422 208.759 138.303 209.103 138.679C209.489 139.141 210.134 139.372 211.036 139.372H211.842V140H202.142V139.372H202.947C203.914 139.372 204.607 139.076 205.026 138.485C205.262 138.142 205.38 137.325 205.38 136.036V120.874L196.615 140H196.035L187.253 120.874V136.036C187.253 137.411 187.414 138.292 187.736 138.679C188.155 139.141 188.811 139.372 189.702 139.372H190.476V140H182.596ZM222.628 140.5C220.555 140.5 218.82 139.705 217.423 138.115C216.038 136.514 215.345 134.629 215.345 132.459C215.345 130.289 216.005 128.404 217.327 126.803C218.755 125.074 220.576 124.209 222.789 124.209C224.927 124.209 226.705 124.956 228.123 126.449C229.498 127.931 230.185 129.8 230.185 132.056C230.185 134.248 229.557 136.149 228.3 137.76C226.86 139.586 224.97 140.5 222.628 140.5ZM223.321 139.259C225.813 139.259 227.059 137.277 227.059 133.313C227.059 130.971 226.619 129.054 225.738 127.561C224.868 126.035 223.708 125.272 222.257 125.272C221.215 125.272 220.367 125.681 219.712 126.497C218.884 127.518 218.471 129.048 218.471 131.089C218.471 133.367 218.906 135.279 219.776 136.826C220.689 138.448 221.871 139.259 223.321 139.259ZM240.472 140.5C238.753 140.5 237.271 139.78 236.025 138.34C234.779 136.879 234.155 135.091 234.155 132.975C234.155 130.762 234.8 128.796 236.089 127.077C237.539 125.154 239.382 124.188 241.616 124.177C242.959 124.177 244.076 124.606 244.967 125.466V122.63C244.967 120.986 244.93 119.923 244.855 119.439C244.812 119.096 244.672 118.806 244.436 118.569C244.135 118.29 243.528 118.301 242.615 118.602L242.389 117.989L246.998 116.152H247.755V133.909C247.755 134.758 247.766 135.451 247.787 135.988C247.809 136.514 247.825 136.89 247.836 137.116C247.879 137.545 248.029 137.852 248.287 138.034C248.641 138.335 249.259 138.324 250.14 138.002L250.333 138.566L245.693 140.5H244.967V138.276C243.517 139.758 242.019 140.5 240.472 140.5ZM241.987 138.614C243.007 138.614 244.001 138.109 244.967 137.1V129.172C244.967 128.205 244.651 127.335 244.017 126.562C243.34 125.713 242.475 125.262 241.423 125.208C240.252 125.165 239.274 125.724 238.49 126.884C237.663 128.098 237.249 129.671 237.249 131.605C237.249 133.904 237.77 135.687 238.812 136.955C239.693 138.05 240.751 138.604 241.987 138.614ZM256.737 140.306C255.641 140.306 254.76 139.941 254.094 139.21C253.417 138.501 253.079 137.551 253.079 136.358C253.079 135.123 253.595 134.07 254.626 133.2C255.883 132.126 258.214 130.998 261.619 129.816V129.188C261.619 127.77 261.388 126.75 260.926 126.126C260.475 125.514 259.755 125.208 258.767 125.208C258.058 125.208 257.51 125.385 257.123 125.74C256.704 126.094 256.479 126.54 256.447 127.077L256.479 128.06C256.511 129.124 256.044 129.655 255.077 129.655C254.142 129.655 253.675 129.118 253.675 128.044C253.675 126.895 254.244 125.955 255.383 125.224C256.49 124.547 257.795 124.209 259.299 124.209C261.372 124.209 262.784 124.682 263.536 125.627C264.138 126.357 264.439 127.625 264.439 129.43V134.683C264.439 135.349 264.444 135.902 264.455 136.342C264.466 136.783 264.487 137.121 264.519 137.357C264.616 137.905 264.863 138.179 265.261 138.179C265.583 138.179 266.19 137.728 267.081 136.826V137.792C265.825 139.468 264.605 140.306 263.424 140.306C262.221 140.306 261.619 139.468 261.619 137.792C260.19 138.91 259.245 139.592 258.783 139.839C258.181 140.15 257.499 140.306 256.737 140.306ZM258.267 138.389C259.095 138.41 260.212 137.852 261.619 136.713V130.799C259.234 131.755 257.639 132.62 256.833 133.394C256.221 134.006 255.915 134.731 255.915 135.569C255.915 136.385 256.146 137.046 256.608 137.551C257.037 138.077 257.591 138.356 258.267 138.389ZM280.162 140V139.372H280.855C281.467 139.372 281.994 139.184 282.434 138.808C282.864 138.442 283.079 137.486 283.079 135.939V125.853H280.049V124.628H283.079V123.613C283.079 120.659 284.019 118.548 285.898 117.28C287.005 116.528 288.208 116.152 289.508 116.152C290.496 116.152 291.452 116.442 292.376 117.022C293.289 117.613 293.746 118.285 293.746 119.037C293.746 119.316 293.606 119.622 293.327 119.955C293.037 120.267 292.72 120.422 292.376 120.422C291.871 120.422 291.248 119.923 290.507 118.924C289.798 117.903 289.024 117.393 288.187 117.393C287.177 117.393 286.532 117.887 286.253 118.875C286.146 119.241 286.054 119.815 285.979 120.6C285.915 121.384 285.882 122.367 285.882 123.548V124.628H289.846V125.853H285.882V135.939C285.882 137.422 286.043 138.324 286.366 138.646C286.742 139.13 287.295 139.372 288.025 139.372H289.411V140H280.162ZM299.843 140.5C297.984 140.5 296.405 139.758 295.106 138.276C293.795 136.772 293.14 134.849 293.14 132.507C293.14 129.951 293.8 127.915 295.122 126.4C296.475 124.918 298.199 124.177 300.294 124.177C302.002 124.177 303.415 124.735 304.532 125.853C305.617 126.991 306.159 128.511 306.159 130.413H295.541C295.541 132.636 296.099 134.425 297.216 135.778C298.28 137.046 299.585 137.69 301.132 137.712C303.194 137.744 304.693 136.525 305.628 134.054L306.159 134.376C305.934 135.988 305.268 137.384 304.161 138.566C302.958 139.855 301.519 140.5 299.843 140.5ZM295.541 129.462H302.663C302.663 127.99 302.249 126.889 301.422 126.159C300.799 125.632 300.106 125.369 299.343 125.369C298.387 125.369 297.549 125.729 296.83 126.449C296.078 127.201 295.648 128.205 295.541 129.462ZM309.324 140V139.372C310.291 139.372 310.914 139.205 311.193 138.872C311.483 138.539 311.628 137.755 311.628 136.52V130.638C311.628 128.941 311.601 127.894 311.548 127.496C311.408 126.755 311.053 126.384 310.484 126.384C310.205 126.384 309.818 126.476 309.324 126.658L309.05 126.062L313.707 124.209H314.448V127.448C315.619 126.137 316.618 125.262 317.445 124.821C318.133 124.413 318.906 124.209 319.765 124.209C321.882 124.209 323.181 125.289 323.665 127.448C324.75 126.191 325.717 125.321 326.565 124.837C327.306 124.418 328.128 124.209 329.03 124.209C331.748 124.209 333.107 126.1 333.107 129.881V136.52C333.107 137.701 333.263 138.469 333.574 138.824C333.864 139.189 334.477 139.372 335.411 139.372V140H327.806V139.372C328.955 139.372 329.67 139.167 329.949 138.759C330.185 138.416 330.303 137.669 330.303 136.52V129.881C330.303 127.421 329.449 126.191 327.741 126.191C326.506 126.191 325.185 126.884 323.778 128.27V136.52C323.778 137.669 323.901 138.421 324.148 138.775C324.449 139.173 325.158 139.372 326.275 139.372V140H318.476V139.372C319.669 139.372 320.415 139.141 320.716 138.679C320.899 138.378 320.99 137.658 320.99 136.52V129.881C320.99 127.399 320.114 126.159 318.363 126.159C317.064 126.159 315.758 126.862 314.448 128.27V136.52C314.448 137.798 314.604 138.587 314.915 138.888C315.205 139.21 315.871 139.372 316.913 139.372V140H309.324ZM345.166 140.5C343.308 140.5 341.729 139.758 340.429 138.276C339.118 136.772 338.463 134.849 338.463 132.507C338.463 129.951 339.124 127.915 340.445 126.4C341.799 124.918 343.523 124.177 345.617 124.177C347.325 124.177 348.738 124.735 349.855 125.853C350.94 126.991 351.483 128.511 351.483 130.413H340.864C340.864 132.636 341.423 134.425 342.54 135.778C343.603 137.046 344.908 137.69 346.455 137.712C348.518 137.744 350.016 136.525 350.951 134.054L351.483 134.376C351.257 135.988 350.591 137.384 349.485 138.566C348.282 139.855 346.842 140.5 345.166 140.5ZM340.864 129.462H347.986C347.986 127.99 347.573 126.889 346.745 126.159C346.122 125.632 345.429 125.369 344.667 125.369C343.711 125.369 342.873 125.729 342.153 126.449C341.401 127.201 340.971 128.205 340.864 129.462ZM354.583 140V139.372C355.55 139.372 356.173 139.2 356.452 138.856C356.742 138.523 356.887 137.744 356.887 136.52V130.799C356.887 128.307 356.721 126.911 356.388 126.61C356.001 126.309 355.399 126.325 354.583 126.658L354.309 126.062L359.014 124.209H359.707V127.416C361.49 125.278 363.204 124.209 364.847 124.209C367.533 124.209 368.875 126.126 368.875 129.961V136.52C368.875 137.615 368.988 138.335 369.214 138.679C369.515 139.141 370.197 139.372 371.26 139.372V140H363.574V139.372C364.691 139.372 365.39 139.205 365.669 138.872C365.948 138.507 366.088 137.723 366.088 136.52V130.251C366.088 128.866 365.9 127.845 365.524 127.19C365.18 126.578 364.562 126.271 363.671 126.271C362.328 126.271 361.007 126.991 359.707 128.431V136.52C359.707 137.669 359.814 138.399 360.029 138.711C360.351 139.151 361.077 139.372 362.204 139.372V140H354.583ZM374.264 140V139.372C375.23 139.372 375.859 139.21 376.149 138.888C376.46 138.555 376.616 137.884 376.616 136.874V128.64C376.616 127.136 376.229 126.384 375.456 126.384C375.188 126.384 374.79 126.476 374.264 126.658L374.038 126.062L378.695 124.209H379.42V136.874C379.42 137.905 379.57 138.577 379.871 138.888C380.161 139.21 380.79 139.372 381.756 139.372V140H374.264ZM378.018 121.131C377.556 121.131 377.148 120.97 376.793 120.648C376.471 120.326 376.31 119.917 376.31 119.423C376.31 118.908 376.482 118.51 376.826 118.231C377.169 117.909 377.567 117.748 378.018 117.748C378.501 117.748 378.904 117.909 379.227 118.231C379.549 118.564 379.71 118.961 379.71 119.423C379.71 119.928 379.554 120.336 379.243 120.648C378.92 120.97 378.512 121.131 378.018 121.131ZM384.599 140V139.372C385.566 139.372 386.189 139.2 386.468 138.856C386.758 138.523 386.903 137.744 386.903 136.52V130.799C386.903 128.307 386.736 126.911 386.403 126.61C386.017 126.309 385.415 126.325 384.599 126.658L384.325 126.062L389.03 124.209H389.723V127.416C391.506 125.278 393.219 124.209 394.863 124.209C397.548 124.209 398.891 126.126 398.891 129.961V136.52C398.891 137.615 399.004 138.335 399.23 138.679C399.53 139.141 400.212 139.372 401.276 139.372V140H393.59V139.372C394.707 139.372 395.405 139.205 395.685 138.872C395.964 138.507 396.104 137.723 396.104 136.52V130.251C396.104 128.866 395.916 127.845 395.54 127.19C395.196 126.578 394.578 126.271 393.687 126.271C392.344 126.271 391.023 126.991 389.723 128.431V136.52C389.723 137.669 389.83 138.399 390.045 138.711C390.367 139.151 391.092 139.372 392.22 139.372V140H384.599ZM407.873 140.306C406.777 140.306 405.896 139.941 405.23 139.21C404.553 138.501 404.215 137.551 404.215 136.358C404.215 135.123 404.731 134.07 405.762 133.2C407.019 132.126 409.35 130.998 412.755 129.816V129.188C412.755 127.77 412.524 126.75 412.062 126.126C411.611 125.514 410.891 125.208 409.903 125.208C409.194 125.208 408.646 125.385 408.259 125.74C407.841 126.094 407.615 126.54 407.583 127.077L407.615 128.06C407.647 129.124 407.18 129.655 406.213 129.655C405.279 129.655 404.811 129.118 404.811 128.044C404.811 126.895 405.381 125.955 406.519 125.224C407.626 124.547 408.931 124.209 410.435 124.209C412.508 124.209 413.921 124.682 414.673 125.627C415.274 126.357 415.575 127.625 415.575 129.43V134.683C415.575 135.349 415.58 135.902 415.591 136.342C415.602 136.783 415.623 137.121 415.655 137.357C415.752 137.905 415.999 138.179 416.397 138.179C416.719 138.179 417.326 137.728 418.217 136.826V137.792C416.961 139.468 415.741 140.306 414.56 140.306C413.357 140.306 412.755 139.468 412.755 137.792C411.326 138.91 410.381 139.592 409.919 139.839C409.318 140.15 408.635 140.306 407.873 140.306ZM409.404 138.389C410.231 138.41 411.348 137.852 412.755 136.713V130.799C410.37 131.755 408.775 132.62 407.969 133.394C407.357 134.006 407.051 134.731 407.051 135.569C407.051 136.385 407.282 137.046 407.744 137.551C408.174 138.077 408.727 138.356 409.404 138.389Z" fill="#420104"/>
<defs>
<linearGradient id="paint0_linear_13_690" x1="57.619" y1="0" x2="57.619" y2="154" gradientUnits="userSpaceOnUse">
<stop offset="0.3" stop-color="#C0010C"/>
<stop offset="0.5" stop-color="#480005"/>
<stop offset="0.8" stop-color="#C0010C"/>
</linearGradient>
<linearGradient id="paint1_linear_13_690" x1="57.619" y1="0" x2="57.619" y2="154" gradientUnits="userSpaceOnUse">
<stop offset="0.3" stop-color="#C0010C"/>
<stop offset="0.5" stop-color="#480005"/>
<stop offset="0.8" stop-color="#C0010C"/>
</linearGradient>
<linearGradient id="paint2_linear_13_690" x1="57.619" y1="0" x2="57.619" y2="154" gradientUnits="userSpaceOnUse">
<stop stop-color="#480005"/>
<stop offset="1" stop-color="#C00104"/>
</linearGradient>
<linearGradient id="paint3_linear_13_690" x1="57.619" y1="0" x2="57.619" y2="154" gradientUnits="userSpaceOnUse">
<stop stop-color="#C0010C"/>
<stop offset="1" stop-color="#480005"/>
</linearGradient>
</defs>
</svg>
